# xmcd
#
# Track frame offsets:
#	150
#	15728
#	31506
#	51757
#	71316
#	93418
#	110607
#	125823
#	147190
#	163938
#	183158
#
# Disc length: 2720 seconds
#
# Revision: 2
# Processed by: cddbd v1.5.2PL0 Copyright (c) Steve Scherf et al.
# Submitted via: audiograbber 1.83.01
#
DISCID=8f0a9e0b
DTITLE=Pam Tillis - Rhinestoned
DYEAR=2007
DGENRE=Country
TTITLE0=Something Burning Out
TTITLE1=Band in The Window
TTITLE2=Train Without A Whistle
TTITLE3=Life Has Sure Changed Us Around (Duet with John Anderson)
TTITLE4=Someone Somewhere Tonight
TTITLE5=Down by The Water
TTITLE6=Crazy by Myself
TTITLE7=Bettin' Money On Love
TTITLE8=That Was A Heartache
TTITLE9=The Hard Way
TTITLE10=Over My Head
EXTD=
EXTT0=
EXTT1=
EXTT2=
EXTT3=
EXTT4=
EXTT5=
EXTT6=
EXTT7=
EXTT8=
EXTT9=
EXTT10=
PLAYORDER=
